<svg width="50" height="50" viewBox="0 0 50 50" fill="none" xmlns="http://www.w3.org/2000/svg">
<path d="M8.66699 15H38.667C39.219 15 39.667 14.553 39.667 14C39.667 13.447 39.219 13 38.667 13H8.66699C8.11499 13 7.66699 13.447 7.66699 14C7.66699 14.553 8.11399 15 8.66699 15Z" fill="white"/>
<path d="M8.66699 37H38.667C39.219 37 39.667 36.553 39.667 36C39.667 35.447 39.219 35 38.667 35H8.66699C8.11499 35 7.66699 35.447 7.66699 36C7.66699 36.553 8.11399 37 8.66699 37Z" fill="white"/>
<path d="M8.66699 26H38.667C39.219 26 39.667 25.553 39.667 25C39.667 24.447 39.219 24 38.667 24H8.66699C8.11499 24 7.66699 24.447 7.66699 25C7.66699 25.553 8.11399 26 8.66699 26Z" fill="white"/>
</svg>
