<svg width="116" height="126" viewBox="0 0 116 126" fill="none" xmlns="http://www.w3.org/2000/svg">
<path d="M35.7383 81.5195L33.0527 83.5283L33.4717 93.9805L35.6309 94.9688L29.0889 96.333L31.7529 93.9805L29.9912 85.4619L27.5957 94.9688L22.4072 86.3213L21 94.1094L23.0625 95.8496L17.6055 96.1289L19.7646 94.1738L20.4307 82.959L18.1641 81.5195L23.46 81.2617L27.0264 91.3379L29.7549 81.3691L35.7383 81.5195ZM45.417 85.5479L45.8359 94.7861L47.7695 95.6885L43.3652 96.5049L43.5693 93.3574C43.3688 93.7799 43.1396 94.1846 42.8818 94.5713C42.624 94.9508 42.334 95.2874 42.0117 95.5811C41.6895 95.8675 41.335 96.0967 40.9482 96.2686C40.5687 96.4404 40.1569 96.5264 39.7129 96.5264C39.1829 96.5264 38.7174 96.4333 38.3164 96.2471C37.9154 96.0609 37.5788 95.8066 37.3066 95.4844C37.0345 95.1549 36.8268 94.7718 36.6836 94.335C36.5475 93.891 36.4795 93.4183 36.4795 92.917C36.4795 92.4515 36.5153 91.9681 36.5869 91.4668C36.6585 90.9655 36.7552 90.4714 36.877 89.9844C37.0059 89.4902 37.1562 89.014 37.3281 88.5557C37.5072 88.0902 37.7005 87.6605 37.9082 87.2666L35.6416 86.7402L39.8955 85.29C39.6234 86.0133 39.4121 86.708 39.2617 87.374C39.1185 88.0329 39.0111 88.6201 38.9395 89.1357C38.8607 89.7373 38.8105 90.2959 38.7891 90.8115C38.7891 91.4775 38.8356 92.054 38.9287 92.541C39.0218 93.0208 39.1507 93.4219 39.3154 93.7441C39.4801 94.0592 39.6771 94.2956 39.9062 94.4531C40.1354 94.6035 40.3861 94.6787 40.6582 94.6787C41.0736 94.6787 41.446 94.5677 41.7754 94.3457C42.1048 94.1237 42.3949 93.8265 42.6455 93.4541C42.9033 93.0745 43.1217 92.6341 43.3008 92.1328C43.487 91.6315 43.6374 91.1016 43.752 90.543C43.8737 89.9844 43.9632 89.415 44.0205 88.835C44.0778 88.2549 44.11 87.6963 44.1172 87.1592L41.7861 85.5479H45.417ZM56.8145 94.6572L59.1885 95.5381L55.2998 96.29L55.3428 94.1953C55.1709 94.4889 54.974 94.7718 54.752 95.0439C54.5299 95.3089 54.2793 95.5452 54 95.7529C53.7279 95.9606 53.4235 96.1253 53.0869 96.2471C52.7503 96.376 52.3851 96.4404 51.9912 96.4404C51.4326 96.4261 50.9027 96.3008 50.4014 96.0645C49.9072 95.8281 49.4704 95.4915 49.0908 95.0547C48.7184 94.6107 48.4212 94.07 48.1992 93.4326C47.9844 92.7881 47.877 92.054 47.877 91.2305C47.877 90.2279 47.9951 89.3506 48.2314 88.5986C48.4678 87.8467 48.79 87.2201 49.1982 86.7188C49.6064 86.2174 50.0827 85.8415 50.627 85.5908C51.1784 85.3402 51.7656 85.2148 52.3887 85.2148C53.0189 85.2148 53.6025 85.3509 54.1396 85.623C54.6839 85.888 55.1279 86.2461 55.4717 86.6973L55.5146 84.1621L52.8936 83.1738L58.2002 82.2285L56.8145 94.6572ZM52.3242 95.0762C52.3457 95.0762 52.4173 95.069 52.5391 95.0547C52.6608 95.0404 52.8112 95.0046 52.9902 94.9473C53.1693 94.8828 53.3662 94.7897 53.5811 94.668C53.8031 94.5462 54.0215 94.3779 54.2363 94.1631C54.4583 93.9411 54.6696 93.6654 54.8701 93.3359C55.0706 93.0065 55.2425 92.6055 55.3857 92.1328L55.4502 88.6309C55.3428 88.373 55.2067 88.126 55.042 87.8896C54.8844 87.6533 54.7054 87.4456 54.5049 87.2666C54.3115 87.0804 54.0931 86.9336 53.8496 86.8262C53.6133 86.7116 53.3626 86.6543 53.0977 86.6543C52.6035 86.6543 52.181 86.776 51.8301 87.0195C51.4863 87.263 51.1999 87.5996 50.9707 88.0293C50.7487 88.459 50.584 88.9674 50.4766 89.5547C50.3763 90.1419 50.3262 90.7793 50.3262 91.4668C50.3262 91.9753 50.3691 92.4515 50.4551 92.8955C50.541 93.3324 50.6663 93.7119 50.8311 94.0342C50.9958 94.3564 51.2035 94.6107 51.4541 94.7969C51.7048 94.9831 51.9948 95.0762 52.3242 95.0762ZM68.9639 89.3076C68.9639 89.6872 68.9424 90.0954 68.8994 90.5322C68.8564 90.9691 68.792 91.4131 68.7061 91.8643C68.6273 92.3154 68.5306 92.7594 68.416 93.1963C68.3086 93.626 68.1904 94.0234 68.0615 94.3887L70.3496 96L66.2998 95.8281L66.5469 94.5068C66.1172 95.0439 65.6195 95.4557 65.0537 95.7422C64.4951 96.0215 63.847 96.1898 63.1094 96.2471C62.5078 96.29 61.9814 96.2471 61.5303 96.1182C61.0863 95.9964 60.7139 95.8066 60.4131 95.5488C60.1195 95.2839 59.901 94.9616 59.7578 94.582C59.6146 94.1953 59.543 93.7656 59.543 93.293C59.543 92.8561 59.6504 92.4336 59.8652 92.0254C60.0801 91.61 60.388 91.2448 60.7891 90.9297C61.1973 90.6146 61.695 90.3639 62.2822 90.1777C62.8695 89.9844 63.5355 89.8877 64.2803 89.8877C64.624 89.8877 65.0179 89.9199 65.4619 89.9844C65.9131 90.0488 66.3392 90.1849 66.7402 90.3926C66.7044 89.9557 66.6364 89.5117 66.5361 89.0605C66.443 88.6022 66.3034 88.1868 66.1172 87.8145C65.931 87.4421 65.6875 87.1413 65.3867 86.9121C65.0931 86.6758 64.7243 86.5576 64.2803 86.5576C63.9007 86.5576 63.5319 86.6364 63.1738 86.7939C62.8158 86.9515 62.4792 87.1771 62.1641 87.4707C61.8561 87.7643 61.5768 88.1224 61.3262 88.5449C61.0755 88.9674 60.8643 89.4437 60.6924 89.9736L59.79 84.71L61.1543 86.8047C61.4909 86.3893 61.8311 86.0599 62.1748 85.8164C62.5186 85.5658 62.8587 85.376 63.1953 85.2471C63.5391 85.111 63.8685 85.0215 64.1836 84.9785C64.5059 84.9355 64.8138 84.9141 65.1074 84.9141C65.6589 84.9427 66.1673 85.0573 66.6328 85.2578C67.1055 85.4512 67.5137 85.734 67.8574 86.1064C68.2012 86.4717 68.4697 86.9229 68.6631 87.46C68.8636 87.9971 68.9639 88.613 68.9639 89.3076ZM66.7402 92.7451C66.7546 92.5446 66.7653 92.3512 66.7725 92.165C66.7796 91.9788 66.7832 91.7962 66.7832 91.6172V91.4883C66.5254 91.388 66.264 91.3128 65.999 91.2627C65.7412 91.2054 65.5013 91.166 65.2793 91.1445C65.0573 91.1159 64.8675 91.1016 64.71 91.1016C64.5596 91.0944 64.4593 91.0908 64.4092 91.0908C64.001 91.1051 63.6465 91.1803 63.3457 91.3164C63.0449 91.4525 62.7943 91.6243 62.5938 91.832C62.4004 92.0326 62.2536 92.2581 62.1533 92.5088C62.0602 92.7594 62.0137 93.0065 62.0137 93.25C62.0137 93.8014 62.1462 94.2204 62.4111 94.5068C62.6833 94.7861 63.0771 94.9258 63.5928 94.9258C63.9365 94.9258 64.2624 94.8649 64.5703 94.7432C64.8783 94.6214 65.1647 94.4603 65.4297 94.2598C65.7018 94.0521 65.9453 93.8193 66.1602 93.5615C66.3822 93.2965 66.5755 93.0244 66.7402 92.7451ZM78.2881 88.6738C78.2236 88.4089 78.1305 88.1833 78.0088 87.9971C77.8942 87.8109 77.7617 87.6569 77.6113 87.5352C77.4681 87.4062 77.3141 87.3096 77.1494 87.2451C76.9847 87.1735 76.82 87.1198 76.6553 87.084C76.2686 87.0052 75.8568 87.0088 75.4199 87.0947C75.2695 87.1449 75.1084 87.2236 74.9365 87.3311C74.7861 87.4313 74.6143 87.5674 74.4209 87.7393C74.2275 87.904 74.0199 88.126 73.7979 88.4053L73.9912 94.6357L75.9248 95.6025L70.2314 96.1074L71.7031 94.6143L72.3047 87.1377L70.0166 86.0957L73.7119 85.3975L73.7549 86.7402C74.0055 86.4395 74.2633 86.1924 74.5283 85.999C74.7933 85.8057 75.0332 85.6481 75.248 85.5264C75.4987 85.3903 75.7422 85.2865 75.9785 85.2148C76.4082 85.1146 76.8451 85.0752 77.2891 85.0967C77.4753 85.1038 77.6686 85.1253 77.8691 85.1611C78.0768 85.1969 78.2845 85.2542 78.4922 85.333C78.707 85.4046 78.9147 85.5049 79.1152 85.6338C79.3158 85.7555 79.5091 85.9095 79.6953 86.0957L78.2881 88.6738ZM36.7803 106.391L35.9424 112.686L34.707 108.088L31.4092 108.464L31.8496 119.195L34.5137 120.56L25.9307 121.376L29.0566 119.109L29.6045 108.571L26.1992 108.442L24.8779 112.353L24.459 106.573L36.7803 106.391ZM39.7344 117.058C39.8275 117.459 39.9528 117.853 40.1104 118.239C40.2679 118.619 40.4613 118.959 40.6904 119.26C40.9196 119.561 41.1846 119.804 41.4854 119.99C41.7861 120.176 42.1263 120.27 42.5059 120.27C43.0072 120.27 43.444 120.166 43.8164 119.958C44.1888 119.75 44.4932 119.489 44.7295 119.174C44.9658 118.852 45.1305 118.501 45.2236 118.121C45.3167 117.734 45.3346 117.366 45.2773 117.015C45.4779 117.093 45.6426 117.197 45.7715 117.326C45.9076 117.455 46.0114 117.598 46.083 117.756C46.1618 117.906 46.2155 118.064 46.2441 118.229C46.2728 118.386 46.2871 118.54 46.2871 118.69C46.2871 119.034 46.1868 119.367 45.9863 119.689C45.7858 120.005 45.5029 120.287 45.1377 120.538C44.7796 120.782 44.3535 120.979 43.8594 121.129C43.3652 121.279 42.8245 121.354 42.2373 121.354C41.4495 121.354 40.7441 121.201 40.1211 120.893C39.5052 120.585 38.9824 120.169 38.5527 119.646C38.123 119.117 37.7936 118.497 37.5645 117.788C37.3353 117.079 37.2207 116.324 37.2207 115.521C37.2207 114.705 37.3353 113.953 37.5645 113.266C37.7936 112.571 38.1302 111.98 38.5742 111.493C39.0254 111.006 39.5768 110.637 40.2285 110.387C40.8802 110.136 41.6322 110.036 42.4844 110.086C43.0716 110.129 43.6123 110.297 44.1064 110.591C44.6006 110.884 45.0303 111.264 45.3955 111.729C45.7679 112.188 46.0651 112.714 46.2871 113.309C46.5163 113.903 46.6559 114.522 46.7061 115.167L39.7344 117.058ZM39.5303 115.328C39.5303 115.428 39.5303 115.529 39.5303 115.629C39.5303 115.722 39.5374 115.819 39.5518 115.919L44.2676 114.2C44.11 113.685 43.931 113.244 43.7305 112.879C43.5371 112.507 43.333 112.202 43.1182 111.966C42.9033 111.729 42.6849 111.558 42.4629 111.45C42.248 111.336 42.0404 111.278 41.8398 111.278C41.5391 111.278 41.2741 111.336 41.0449 111.45C40.8158 111.565 40.6152 111.722 40.4434 111.923C40.2786 112.116 40.1354 112.345 40.0137 112.61C39.8991 112.875 39.806 113.158 39.7344 113.459C39.6628 113.76 39.609 114.071 39.5732 114.394C39.5446 114.709 39.5303 115.02 39.5303 115.328ZM47.1787 121.107L48.5859 119.528L49.3164 112.245L47.0498 110.612L50.7021 110.859V111.955C50.9743 111.59 51.2572 111.307 51.5508 111.106C51.8516 110.906 52.1273 110.759 52.3779 110.666C52.6715 110.559 52.9616 110.498 53.248 110.483C53.7565 110.483 54.2184 110.587 54.6338 110.795C55.0492 111.003 55.3786 111.289 55.6221 111.654C55.9229 111.296 56.2666 111.013 56.6533 110.806C57.04 110.591 57.459 110.483 57.9102 110.483C58.3184 110.483 58.6979 110.576 59.0488 110.763C59.3997 110.949 59.7005 111.21 59.9512 111.547C60.209 111.883 60.4095 112.295 60.5527 112.782C60.7031 113.262 60.7783 113.796 60.7783 114.383C60.7783 114.805 60.7497 115.246 60.6924 115.704C60.6423 116.162 60.5706 116.617 60.4775 117.068C60.3916 117.52 60.2842 117.96 60.1553 118.39C60.0264 118.812 59.8867 119.206 59.7363 119.571L61.2617 120.248L55.9336 121.247L58.2861 119.367C58.4007 118.594 58.4723 117.888 58.501 117.251C58.5368 116.606 58.5547 116.059 58.5547 115.607C58.5547 114.454 58.415 113.617 58.1357 113.094C57.8636 112.571 57.4733 112.31 56.9648 112.31C56.6569 112.31 56.349 112.421 56.041 112.643C56.084 112.814 56.1055 112.997 56.1055 113.19C56.1055 113.627 56.0697 114.078 55.998 114.544C55.9336 115.009 55.8477 115.468 55.7402 115.919C55.6328 116.37 55.5111 116.807 55.375 117.229C55.2389 117.652 55.1029 118.035 54.9668 118.379L56.4814 119.571H52.1523L53.6025 118.4C53.6885 117.734 53.7493 117.054 53.7852 116.359C53.821 115.658 53.8389 114.999 53.8389 114.383C53.8389 113.652 53.7529 113.079 53.5811 112.664C53.4163 112.249 53.1156 112.041 52.6787 112.041C52.4567 112.041 52.249 112.084 52.0557 112.17C51.8695 112.256 51.694 112.37 51.5293 112.514C51.3717 112.657 51.2214 112.822 51.0781 113.008C50.9421 113.194 50.8167 113.387 50.7021 113.588V119.442L52.5068 120.731L47.1787 121.107ZM71.7568 114.308C71.7568 114.687 71.7354 115.095 71.6924 115.532C71.6494 115.969 71.585 116.413 71.499 116.864C71.4202 117.315 71.3236 117.759 71.209 118.196C71.1016 118.626 70.9834 119.023 70.8545 119.389L73.1426 121L69.0928 120.828L69.3398 119.507C68.9102 120.044 68.4124 120.456 67.8467 120.742C67.2881 121.021 66.64 121.19 65.9023 121.247C65.3008 121.29 64.7744 121.247 64.3232 121.118C63.8792 120.996 63.5068 120.807 63.2061 120.549C62.9124 120.284 62.694 119.962 62.5508 119.582C62.4076 119.195 62.3359 118.766 62.3359 118.293C62.3359 117.856 62.4434 117.434 62.6582 117.025C62.873 116.61 63.181 116.245 63.582 115.93C63.9902 115.615 64.488 115.364 65.0752 115.178C65.6624 114.984 66.3285 114.888 67.0732 114.888C67.417 114.888 67.8109 114.92 68.2549 114.984C68.7061 115.049 69.1322 115.185 69.5332 115.393C69.4974 114.956 69.4294 114.512 69.3291 114.061C69.236 113.602 69.0964 113.187 68.9102 112.814C68.724 112.442 68.4805 112.141 68.1797 111.912C67.8861 111.676 67.5173 111.558 67.0732 111.558C66.6937 111.558 66.3249 111.636 65.9668 111.794C65.6087 111.951 65.2721 112.177 64.957 112.471C64.6491 112.764 64.3698 113.122 64.1191 113.545C63.8685 113.967 63.6572 114.444 63.4854 114.974L62.583 109.71L63.9473 111.805C64.2839 111.389 64.624 111.06 64.9678 110.816C65.3115 110.566 65.6517 110.376 65.9883 110.247C66.332 110.111 66.6615 110.021 66.9766 109.979C67.2988 109.936 67.6068 109.914 67.9004 109.914C68.4518 109.943 68.9603 110.057 69.4258 110.258C69.8984 110.451 70.3066 110.734 70.6504 111.106C70.9941 111.472 71.2627 111.923 71.4561 112.46C71.6566 112.997 71.7568 113.613 71.7568 114.308ZM69.5332 117.745C69.5475 117.545 69.5583 117.351 69.5654 117.165C69.5726 116.979 69.5762 116.796 69.5762 116.617V116.488C69.3184 116.388 69.057 116.313 68.792 116.263C68.5342 116.205 68.2943 116.166 68.0723 116.145C67.8503 116.116 67.6605 116.102 67.5029 116.102C67.3525 116.094 67.2523 116.091 67.2021 116.091C66.7939 116.105 66.4395 116.18 66.1387 116.316C65.8379 116.452 65.5872 116.624 65.3867 116.832C65.1934 117.033 65.0465 117.258 64.9463 117.509C64.8532 117.759 64.8066 118.007 64.8066 118.25C64.8066 118.801 64.9391 119.22 65.2041 119.507C65.4762 119.786 65.8701 119.926 66.3857 119.926C66.7295 119.926 67.0553 119.865 67.3633 119.743C67.6712 119.621 67.9577 119.46 68.2227 119.26C68.4948 119.052 68.7383 118.819 68.9531 118.562C69.1751 118.297 69.3685 118.024 69.5332 117.745Z" fill="black"/>
<path d="M60.3334 60.6667C75.8743 38.8353 91.0297 17.0914 113.667 2" stroke="black" stroke-width="3" stroke-linecap="round"/>
</svg>
