<svg width="115" height="94" viewBox="0 0 115 94" fill="none" xmlns="http://www.w3.org/2000/svg">
<path d="M56.0971 35.5529C77.1111 52.1825 98.0573 68.4226 111.98 91.7968" stroke="black" stroke-width="3" stroke-linecap="round"/>
<path d="M7.2666 4.97168C7.99707 4.97168 8.69531 5.10059 9.36133 5.3584C10.0273 5.60905 10.5824 5.97786 11.0264 6.46484L13.6475 4.38086L10.6504 10.8047L10.3926 7.67871C10.1562 7.39225 9.9056 7.16667 9.64062 7.00195C9.37565 6.83724 9.11784 6.71549 8.86719 6.63672C8.6237 6.55078 8.40169 6.49707 8.20117 6.47559C8.00781 6.4541 7.85742 6.44336 7.75 6.44336C7.16992 6.44336 6.62923 6.59017 6.12793 6.88379C5.63379 7.17741 5.2041 7.59993 4.83887 8.15137C4.47363 8.69564 4.18359 9.35449 3.96875 10.1279C3.76107 10.9014 3.65723 11.7643 3.65723 12.7168C3.65723 13.6693 3.76107 14.5394 3.96875 15.3271C4.18359 16.1149 4.47005 16.7917 4.82812 17.3574C5.19336 17.9232 5.61947 18.3636 6.10645 18.6787C6.59342 18.9867 7.11263 19.1406 7.66406 19.1406C8.22266 19.1406 8.70247 19.0046 9.10352 18.7324C9.50456 18.4531 9.83398 18.1022 10.0918 17.6797C10.3496 17.2572 10.5358 16.7952 10.6504 16.2939C10.7721 15.7926 10.833 15.3128 10.833 14.8545C10.833 14.7542 10.833 14.6611 10.833 14.5752C10.833 14.4821 10.8258 14.3854 10.8115 14.2852C11.277 14.5931 11.6172 14.944 11.832 15.3379C12.054 15.7246 12.165 16.1257 12.165 16.541C12.165 16.9277 12.0684 17.3395 11.875 17.7764C11.6888 18.2061 11.4095 18.6071 11.0371 18.9795C10.6647 19.3447 10.2064 19.6491 9.66211 19.8926C9.11784 20.1289 8.48763 20.2471 7.77148 20.2471C7.19141 20.2471 6.61491 20.1862 6.04199 20.0645C5.46908 19.9427 4.92122 19.7565 4.39844 19.5059C3.87565 19.248 3.38867 18.9222 2.9375 18.5283C2.48633 18.1344 2.09603 17.6654 1.7666 17.1211C1.43717 16.5768 1.17578 15.9502 0.982422 15.2412C0.796224 14.5322 0.703125 13.7409 0.703125 12.8672C0.703125 12.015 0.789062 11.2308 0.960938 10.5146C1.13997 9.79134 1.38346 9.13965 1.69141 8.55957C2.00651 7.97233 2.37174 7.45671 2.78711 7.0127C3.20964 6.56152 3.66081 6.18555 4.14062 5.88477C4.6276 5.58398 5.13607 5.3584 5.66602 5.20801C6.20312 5.05046 6.73665 4.97168 7.2666 4.97168ZM13.4863 14.6074C13.4863 13.8053 13.6117 13.0641 13.8623 12.3838C14.1201 11.6963 14.4746 11.1019 14.9258 10.6006C15.3841 10.0993 15.9248 9.70898 16.5479 9.42969C17.1781 9.14323 17.8656 9 18.6104 9C19.3337 9 19.9961 9.13607 20.5977 9.4082C21.1992 9.67318 21.722 10.0492 22.166 10.5361C22.61 11.0231 22.9645 11.6068 23.2295 12.2871C23.4945 12.9674 23.652 13.7194 23.7021 14.543C23.7523 15.4238 23.6592 16.2223 23.4229 16.9385C23.1937 17.6475 22.8535 18.2526 22.4023 18.7539C21.9512 19.248 21.4105 19.6312 20.7803 19.9033C20.1572 20.1755 19.4805 20.3115 18.75 20.3115C18.0482 20.3115 17.3786 20.1862 16.7412 19.9355C16.111 19.6777 15.5524 19.3053 15.0654 18.8184C14.5856 18.3314 14.2025 17.737 13.916 17.0352C13.6296 16.3262 13.4863 15.5169 13.4863 14.6074ZM16.1289 14.79C16.1289 15.4202 16.2184 15.9896 16.3975 16.498C16.5765 17.0065 16.8164 17.4398 17.1172 17.7979C17.418 18.1488 17.7653 18.4209 18.1592 18.6143C18.5531 18.8076 18.9684 18.9043 19.4053 18.9043C19.8421 18.9043 20.2503 18.8112 20.6299 18.625C21.0094 18.4316 21.3389 18.1631 21.6182 17.8193C21.8975 17.4684 22.1159 17.0495 22.2734 16.5625C22.431 16.0755 22.5098 15.5348 22.5098 14.9404C22.5098 14.3532 22.431 13.8018 22.2734 13.2861C22.1159 12.7633 21.8939 12.3086 21.6074 11.9219C21.3281 11.5352 20.9951 11.2308 20.6084 11.0088C20.2217 10.7868 19.7992 10.6758 19.3408 10.6758C18.9326 10.6758 18.5352 10.7689 18.1484 10.9551C17.7689 11.1413 17.4287 11.4134 17.1279 11.7715C16.8271 12.1224 16.5837 12.5521 16.3975 13.0605C16.2184 13.569 16.1289 14.1455 16.1289 14.79ZM34.7344 13.3291C34.7344 13.7301 34.7165 14.1527 34.6807 14.5967C34.6449 15.0407 34.5911 15.4847 34.5195 15.9287C34.4479 16.3727 34.3584 16.806 34.251 17.2285C34.1507 17.651 34.0326 18.0378 33.8965 18.3887L36.0127 19.0762L30.416 20.1719L32.3174 18.7432C32.4678 18.1917 32.568 17.6618 32.6182 17.1533C32.6755 16.6449 32.7041 16.165 32.7041 15.7139C32.7041 15.4417 32.6934 15.1338 32.6719 14.79C32.6576 14.4391 32.6182 14.0846 32.5537 13.7266C32.4964 13.3685 32.4105 13.0176 32.2959 12.6738C32.1885 12.3301 32.0452 12.0257 31.8662 11.7607C31.6872 11.4886 31.4652 11.2738 31.2002 11.1162C30.9424 10.9515 30.6309 10.8691 30.2656 10.8691C29.8431 10.8691 29.4134 11.0088 28.9766 11.2881C28.5397 11.5674 28.1351 11.9792 27.7627 12.5234V18.4639L29.5352 19.7314L24.2178 20.1074L25.625 18.5498L26.377 10.7402L24.0889 9.6123L27.7627 9.24707V10.8691C27.9704 10.5827 28.1995 10.3141 28.4502 10.0635C28.7008 9.81283 28.9658 9.59798 29.2451 9.41895C29.5244 9.23275 29.8145 9.08952 30.1152 8.98926C30.4232 8.88184 30.7383 8.82812 31.0605 8.82812C31.6836 8.82812 32.2243 8.94271 32.6826 9.17188C33.141 9.40104 33.5205 9.71973 33.8213 10.1279C34.1292 10.529 34.3584 11.0052 34.5088 11.5566C34.6592 12.1009 34.7344 12.6917 34.7344 13.3291ZM37.2695 15.2949C37.2695 14.6217 37.3376 13.9521 37.4736 13.2861C37.6169 12.613 37.7708 11.9971 37.9355 11.4385L36.0771 11.5566L41.3193 5.83105C40.904 7.1416 40.5674 8.32324 40.3096 9.37598L44.4883 9.73047L43.9404 11.0195L39.8906 11.3096C39.7904 11.8324 39.7116 12.2979 39.6543 12.7061C39.6042 13.1071 39.5612 13.4473 39.5254 13.7266C39.4896 14.056 39.4645 14.3424 39.4502 14.5859C39.4502 15.3021 39.4932 15.9466 39.5791 16.5195C39.665 17.0924 39.7975 17.583 39.9766 17.9912C40.1628 18.3923 40.3955 18.7038 40.6748 18.9258C40.9613 19.1406 41.3014 19.248 41.6953 19.248C42.0605 19.248 42.3649 19.1764 42.6084 19.0332C42.859 18.8828 43.0596 18.693 43.21 18.4639C43.3604 18.2275 43.4678 17.9661 43.5322 17.6797C43.5967 17.3861 43.6289 17.096 43.6289 16.8096C43.6289 16.5446 43.6074 16.2868 43.5645 16.0361C43.8724 16.1937 44.1051 16.4479 44.2627 16.7988C44.4274 17.1426 44.5098 17.5186 44.5098 17.9268C44.5098 18.3493 44.4382 18.7217 44.2949 19.0439C44.1589 19.3662 43.9691 19.6383 43.7256 19.8604C43.4821 20.0752 43.1956 20.2399 42.8662 20.3545C42.5368 20.4691 42.1823 20.5264 41.8027 20.5264C41.5736 20.5264 41.3014 20.5013 40.9863 20.4512C40.6784 20.401 40.3561 20.3079 40.0195 20.1719C39.6829 20.043 39.3499 19.8568 39.0205 19.6133C38.6911 19.3698 38.3975 19.0547 38.1396 18.668C37.8818 18.2812 37.6706 17.8122 37.5059 17.2607C37.3483 16.7021 37.2695 16.0469 37.2695 15.2949ZM54.5967 13.3076C54.5967 13.6872 54.5752 14.0954 54.5322 14.5322C54.4893 14.9691 54.4248 15.4131 54.3389 15.8643C54.2601 16.3154 54.1634 16.7594 54.0488 17.1963C53.9414 17.626 53.8232 18.0234 53.6943 18.3887L55.9824 20L51.9326 19.8281L52.1797 18.5068C51.75 19.0439 51.2523 19.4557 50.6865 19.7422C50.1279 20.0215 49.4798 20.1898 48.7422 20.2471C48.1406 20.29 47.6143 20.2471 47.1631 20.1182C46.7191 19.9964 46.3467 19.8066 46.0459 19.5488C45.7523 19.2839 45.5339 18.9616 45.3906 18.582C45.2474 18.1953 45.1758 17.7656 45.1758 17.293C45.1758 16.8561 45.2832 16.4336 45.498 16.0254C45.7129 15.61 46.0208 15.2448 46.4219 14.9297C46.8301 14.6146 47.3278 14.3639 47.915 14.1777C48.5023 13.9844 49.1683 13.8877 49.9131 13.8877C50.2568 13.8877 50.6507 13.9199 51.0947 13.9844C51.5459 14.0488 51.972 14.1849 52.373 14.3926C52.3372 13.9557 52.2692 13.5117 52.1689 13.0605C52.0758 12.6022 51.9362 12.1868 51.75 11.8145C51.5638 11.4421 51.3203 11.1413 51.0195 10.9121C50.7259 10.6758 50.3571 10.5576 49.9131 10.5576C49.5335 10.5576 49.1647 10.6364 48.8066 10.7939C48.4486 10.9515 48.112 11.1771 47.7969 11.4707C47.4889 11.7643 47.2096 12.1224 46.959 12.5449C46.7083 12.9674 46.4971 13.4437 46.3252 13.9736L45.4229 8.70996L46.7871 10.8047C47.1237 10.3893 47.4639 10.0599 47.8076 9.81641C48.1514 9.56576 48.4915 9.37598 48.8281 9.24707C49.1719 9.111 49.5013 9.02148 49.8164 8.97852C50.1387 8.93555 50.4466 8.91406 50.7402 8.91406C51.2917 8.94271 51.8001 9.05729 52.2656 9.25781C52.7383 9.45117 53.1465 9.73405 53.4902 10.1064C53.834 10.4717 54.1025 10.9229 54.2959 11.46C54.4964 11.9971 54.5967 12.613 54.5967 13.3076ZM52.373 16.7451C52.3874 16.5446 52.3981 16.3512 52.4053 16.165C52.4124 15.9788 52.416 15.7962 52.416 15.6172V15.4883C52.1582 15.388 51.8968 15.3128 51.6318 15.2627C51.374 15.2054 51.1341 15.166 50.9121 15.1445C50.6901 15.1159 50.5003 15.1016 50.3428 15.1016C50.1924 15.0944 50.0921 15.0908 50.042 15.0908C49.6338 15.1051 49.2793 15.1803 48.9785 15.3164C48.6777 15.4525 48.4271 15.6243 48.2266 15.832C48.0332 16.0326 47.8864 16.2581 47.7861 16.5088C47.693 16.7594 47.6465 17.0065 47.6465 17.25C47.6465 17.8014 47.779 18.2204 48.0439 18.5068C48.3161 18.7861 48.71 18.9258 49.2256 18.9258C49.5693 18.9258 49.8952 18.8649 50.2031 18.7432C50.5111 18.6214 50.7975 18.4603 51.0625 18.2598C51.3346 18.0521 51.5781 17.8193 51.793 17.5615C52.015 17.2965 52.2083 17.0244 52.373 16.7451ZM57.1855 15.2949C57.1855 14.6217 57.2536 13.9521 57.3896 13.2861C57.5329 12.613 57.6868 11.9971 57.8516 11.4385L55.9932 11.5566L61.2354 5.83105C60.82 7.1416 60.4834 8.32324 60.2256 9.37598L64.4043 9.73047L63.8564 11.0195L59.8066 11.3096C59.7064 11.8324 59.6276 12.2979 59.5703 12.7061C59.5202 13.1071 59.4772 13.4473 59.4414 13.7266C59.4056 14.056 59.3805 14.3424 59.3662 14.5859C59.3662 15.3021 59.4092 15.9466 59.4951 16.5195C59.5811 17.0924 59.7135 17.583 59.8926 17.9912C60.0788 18.3923 60.3115 18.7038 60.5908 18.9258C60.8773 19.1406 61.2174 19.248 61.6113 19.248C61.9766 19.248 62.2809 19.1764 62.5244 19.0332C62.7751 18.8828 62.9756 18.693 63.126 18.4639C63.2764 18.2275 63.3838 17.9661 63.4482 17.6797C63.5127 17.3861 63.5449 17.096 63.5449 16.8096C63.5449 16.5446 63.5234 16.2868 63.4805 16.0361C63.7884 16.1937 64.0212 16.4479 64.1787 16.7988C64.3434 17.1426 64.4258 17.5186 64.4258 17.9268C64.4258 18.3493 64.3542 18.7217 64.2109 19.0439C64.0749 19.3662 63.8851 19.6383 63.6416 19.8604C63.3981 20.0752 63.1117 20.2399 62.7822 20.3545C62.4528 20.4691 62.0983 20.5264 61.7188 20.5264C61.4896 20.5264 61.2174 20.5013 60.9023 20.4512C60.5944 20.401 60.2721 20.3079 59.9355 20.1719C59.599 20.043 59.266 19.8568 58.9365 19.6133C58.6071 19.3698 58.3135 19.0547 58.0557 18.668C57.7979 18.2812 57.5866 17.8122 57.4219 17.2607C57.2643 16.7021 57.1855 16.0469 57.1855 15.2949ZM65.1133 14.6074C65.1133 13.8053 65.2386 13.0641 65.4893 12.3838C65.7471 11.6963 66.1016 11.1019 66.5527 10.6006C67.0111 10.0993 67.5518 9.70898 68.1748 9.42969C68.805 9.14323 69.4925 9 70.2373 9C70.9606 9 71.623 9.13607 72.2246 9.4082C72.8262 9.67318 73.349 10.0492 73.793 10.5361C74.237 11.0231 74.5915 11.6068 74.8564 12.2871C75.1214 12.9674 75.279 13.7194 75.3291 14.543C75.3792 15.4238 75.2861 16.2223 75.0498 16.9385C74.8206 17.6475 74.4805 18.2526 74.0293 18.7539C73.5781 19.248 73.0374 19.6312 72.4072 19.9033C71.7842 20.1755 71.1074 20.3115 70.377 20.3115C69.6751 20.3115 69.0055 20.1862 68.3682 19.9355C67.738 19.6777 67.1794 19.3053 66.6924 18.8184C66.2126 18.3314 65.8294 17.737 65.543 17.0352C65.2565 16.3262 65.1133 15.5169 65.1133 14.6074ZM67.7559 14.79C67.7559 15.4202 67.8454 15.9896 68.0244 16.498C68.2035 17.0065 68.4434 17.4398 68.7441 17.7979C69.0449 18.1488 69.3923 18.4209 69.7861 18.6143C70.18 18.8076 70.5954 18.9043 71.0322 18.9043C71.4691 18.9043 71.8773 18.8112 72.2568 18.625C72.6364 18.4316 72.9658 18.1631 73.2451 17.8193C73.5244 17.4684 73.7428 17.0495 73.9004 16.5625C74.0579 16.0755 74.1367 15.5348 74.1367 14.9404C74.1367 14.3532 74.0579 13.8018 73.9004 13.2861C73.7428 12.7633 73.5208 12.3086 73.2344 11.9219C72.9551 11.5352 72.6221 11.2308 72.2354 11.0088C71.8486 10.7868 71.4261 10.6758 70.9678 10.6758C70.5596 10.6758 70.1621 10.7689 69.7754 10.9551C69.3958 11.1413 69.0557 11.4134 68.7549 11.7715C68.4541 12.1224 68.2106 12.5521 68.0244 13.0605C67.8454 13.569 67.7559 14.1455 67.7559 14.79Z" fill="black"/>
</svg>
